<mxfile host="app.diagrams.net" modified="2022-07-03T16:35:11.871Z" agent="5.0 (X11; Linux x86_64) AppleWebKit/537.36 (KHTML, like Gecko) Chrome/102.0.0.0 Safari/537.36" etag="Xqdwx1B4JQppCTcs14qI" version="20.0.4" type="github">
  <diagram id="H9UyAMuK1wAaEfgLcmaO" name="landing-page-infra">
    <mxGraphModel dx="981" dy="530" grid="1" gridSize="10" guides="1" tooltips="1" connect="1" arrows="1" fold="1" page="1" pageScale="1" pageWidth="850" pageHeight="1100" math="0" shadow="0">
      <root>
        <mxCell id="0" />
        <mxCell id="1" parent="0" />
        <mxCell id="BSJNxo1F7Wru38e6qUjU-4" style="edgeStyle=orthogonalEdgeStyle;rounded=0;orthogonalLoop=1;jettySize=auto;html=1;exitX=0.5;exitY=0.5;exitDx=0;exitDy=0;exitPerimeter=0;" edge="1" parent="1" source="BSJNxo1F7Wru38e6qUjU-1" target="BSJNxo1F7Wru38e6qUjU-3">
          <mxGeometry relative="1" as="geometry" />
        </mxCell>
        <mxCell id="BSJNxo1F7Wru38e6qUjU-1" value="users&lt;br&gt;" style="shape=umlActor;verticalLabelPosition=bottom;verticalAlign=top;html=1;outlineConnect=0;" vertex="1" parent="1">
          <mxGeometry x="180" y="335.21" width="30" height="60" as="geometry" />
        </mxCell>
        <mxCell id="BSJNxo1F7Wru38e6qUjU-32" style="edgeStyle=orthogonalEdgeStyle;rounded=0;orthogonalLoop=1;jettySize=auto;html=1;" edge="1" parent="1" source="BSJNxo1F7Wru38e6qUjU-3" target="BSJNxo1F7Wru38e6qUjU-24">
          <mxGeometry relative="1" as="geometry" />
        </mxCell>
        <mxCell id="BSJNxo1F7Wru38e6qUjU-3" value="internet" style="ellipse;shape=cloud;whiteSpace=wrap;html=1;" vertex="1" parent="1">
          <mxGeometry x="280" y="325.21" width="120" height="80" as="geometry" />
        </mxCell>
        <mxCell id="BSJNxo1F7Wru38e6qUjU-27" value="" style="group" vertex="1" connectable="0" parent="1">
          <mxGeometry x="440" y="240" width="340" height="233" as="geometry" />
        </mxCell>
        <mxCell id="BSJNxo1F7Wru38e6qUjU-14" value="" style="rounded=1;arcSize=10;dashed=0;fillColor=none;gradientColor=none;strokeWidth=2;" vertex="1" parent="BSJNxo1F7Wru38e6qUjU-27">
          <mxGeometry y="50" width="260" height="183" as="geometry" />
        </mxCell>
        <mxCell id="BSJNxo1F7Wru38e6qUjU-15" value="" style="dashed=0;html=1;shape=mxgraph.aws3.cloud;fillColor=#F58536;gradientColor=none;dashed=0;" vertex="1" parent="BSJNxo1F7Wru38e6qUjU-27">
          <mxGeometry x="1.14" y="30" width="38.85714285714286" height="26.798722044728432" as="geometry" />
        </mxCell>
        <mxCell id="BSJNxo1F7Wru38e6qUjU-28" value="" style="group" vertex="1" connectable="0" parent="BSJNxo1F7Wru38e6qUjU-27">
          <mxGeometry x="39.99714285714286" y="102.91364217252395" width="179.34065934065933" height="44.2923322683706" as="geometry" />
        </mxCell>
        <mxCell id="BSJNxo1F7Wru38e6qUjU-19" value="S3, Static Files&lt;br&gt;" style="sketch=0;points=[[0,0,0],[0.25,0,0],[0.5,0,0],[0.75,0,0],[1,0,0],[0,1,0],[0.25,1,0],[0.5,1,0],[0.75,1,0],[1,1,0],[0,0.25,0],[0,0.5,0],[0,0.75,0],[1,0.25,0],[1,0.5,0],[1,0.75,0]];outlineConnect=0;fontColor=#232F3E;gradientColor=#60A337;gradientDirection=north;fillColor=#277116;strokeColor=#ffffff;dashed=0;verticalLabelPosition=bottom;verticalAlign=top;align=center;html=1;fontSize=12;fontStyle=0;aspect=fixed;shape=mxgraph.aws4.resourceIcon;resIcon=mxgraph.aws4.s3;" vertex="1" parent="BSJNxo1F7Wru38e6qUjU-28">
          <mxGeometry x="141.97802197802196" y="7.071884984025559" width="30.443921304859586" height="30.443921304859586" as="geometry" />
        </mxCell>
        <mxCell id="BSJNxo1F7Wru38e6qUjU-23" value="" style="group" vertex="1" connectable="0" parent="BSJNxo1F7Wru38e6qUjU-28">
          <mxGeometry x="74.72527472527472" width="33.62637362637362" height="33.498402555910545" as="geometry" />
        </mxCell>
        <mxCell id="BSJNxo1F7Wru38e6qUjU-21" value="Cloudfront &lt;br&gt;with &lt;br&gt;Certificate Manager" style="sketch=0;points=[[0,0,0],[0.25,0,0],[0.5,0,0],[0.75,0,0],[1,0,0],[0,1,0],[0.25,1,0],[0.5,1,0],[0.75,1,0],[1,1,0],[0,0.25,0],[0,0.5,0],[0,0.75,0],[1,0.25,0],[1,0.5,0],[1,0.75,0]];outlineConnect=0;fontColor=#232F3E;gradientColor=#945DF2;gradientDirection=north;fillColor=#5A30B5;strokeColor=#ffffff;dashed=0;verticalLabelPosition=bottom;verticalAlign=top;align=center;html=1;fontSize=12;fontStyle=0;aspect=fixed;shape=mxgraph.aws4.resourceIcon;resIcon=mxgraph.aws4.cloudfront;" vertex="1" parent="BSJNxo1F7Wru38e6qUjU-23">
          <mxGeometry x="-7.719120879120877" y="7.071884984025559" width="30.443921304859582" height="30.443921304859582" as="geometry" />
        </mxCell>
        <mxCell id="BSJNxo1F7Wru38e6qUjU-22" value="" style="sketch=0;points=[[0,0,0],[0.25,0,0],[0.5,0,0],[0.75,0,0],[1,0,0],[0,1,0],[0.25,1,0],[0.5,1,0],[0.75,1,0],[1,1,0],[0,0.25,0],[0,0.5,0],[0,0.75,0],[1,0.25,0],[1,0.5,0],[1,0.75,0]];outlineConnect=0;fontColor=#232F3E;gradientColor=#F54749;gradientDirection=north;fillColor=#C7131F;strokeColor=#ffffff;dashed=0;verticalLabelPosition=bottom;verticalAlign=top;align=center;html=1;fontSize=12;fontStyle=0;aspect=fixed;shape=mxgraph.aws4.resourceIcon;resIcon=mxgraph.aws4.certificate_manager_3;" vertex="1" parent="BSJNxo1F7Wru38e6qUjU-23">
          <mxGeometry x="17.698091382301904" width="9.734043259316946" height="9.734043259316946" as="geometry" />
        </mxCell>
        <mxCell id="BSJNxo1F7Wru38e6qUjU-25" style="edgeStyle=orthogonalEdgeStyle;rounded=0;orthogonalLoop=1;jettySize=auto;html=1;" edge="1" parent="BSJNxo1F7Wru38e6qUjU-28" source="BSJNxo1F7Wru38e6qUjU-24" target="BSJNxo1F7Wru38e6qUjU-21">
          <mxGeometry relative="1" as="geometry" />
        </mxCell>
        <mxCell id="BSJNxo1F7Wru38e6qUjU-24" value="Route 53&lt;br&gt;" style="sketch=0;points=[[0,0,0],[0.25,0,0],[0.5,0,0],[0.75,0,0],[1,0,0],[0,1,0],[0.25,1,0],[0.5,1,0],[0.75,1,0],[1,1,0],[0,0.25,0],[0,0.5,0],[0,0.75,0],[1,0.25,0],[1,0.5,0],[1,0.75,0]];outlineConnect=0;fontColor=#232F3E;gradientColor=#945DF2;gradientDirection=north;fillColor=#5A30B5;strokeColor=#ffffff;dashed=0;verticalLabelPosition=bottom;verticalAlign=top;align=center;html=1;fontSize=12;fontStyle=0;aspect=fixed;shape=mxgraph.aws4.resourceIcon;resIcon=mxgraph.aws4.route_53;" vertex="1" parent="BSJNxo1F7Wru38e6qUjU-28">
          <mxGeometry y="7.071884984025559" width="30.443921304859586" height="30.443921304859586" as="geometry" />
        </mxCell>
        <mxCell id="BSJNxo1F7Wru38e6qUjU-26" style="edgeStyle=orthogonalEdgeStyle;rounded=0;orthogonalLoop=1;jettySize=auto;html=1;entryX=0;entryY=0.5;entryDx=0;entryDy=0;entryPerimeter=0;" edge="1" parent="BSJNxo1F7Wru38e6qUjU-28" source="BSJNxo1F7Wru38e6qUjU-21" target="BSJNxo1F7Wru38e6qUjU-19">
          <mxGeometry relative="1" as="geometry" />
        </mxCell>
      </root>
    </mxGraphModel>
  </diagram>
</mxfile>
